<svg width="22" height="31" viewBox="0 0 22 31" fill="none" xmlns="http://www.w3.org/2000/svg">
<g clip-path="url(#clip0_0_95)">
<path d="M5.5011 30.2434C8.53649 30.2434 11 27.9852 11 25.2029V20.1624H5.5011C2.4657 20.1624 0.00219727 22.4205 0.00219727 25.2029C0.00219727 27.9852 2.4657 30.2434 5.5011 30.2434Z" fill="#0ACF83"/>
<path d="M0.00219727 15.1213C0.00219727 12.339 2.4657 10.0808 5.5011 10.0808H11V20.1618H5.5011C2.4657 20.1618 0.00219727 17.9037 0.00219727 15.1213Z" fill="#A259FF"/>
<path d="M0.00379944 5.04051C0.00379944 2.25815 2.46731 0 5.5027 0H11.0016V10.081H5.5027C2.46731 10.081 0.00379944 7.82287 0.00379944 5.04051Z" fill="#F24E1E"/>
<path d="M11 0H16.4989C19.5343 0 21.9978 2.25815 21.9978 5.04051C21.9978 7.82287 19.5343 10.081 16.4989 10.081H11V0Z" fill="#FF7262"/>
<path d="M21.9978 15.1213C21.9978 17.9037 19.5343 20.1618 16.4989 20.1618C13.4635 20.1618 11 17.9037 11 15.1213C11 12.339 13.4635 10.0808 16.4989 10.0808C19.5343 10.0808 21.9978 12.339 21.9978 15.1213Z" fill="#1ABCFE"/>
</g>
<defs>
<clipPath id="clip0_0_95">
<rect width="22" height="30.243" fill="white"/>
</clipPath>
</defs>
</svg>
