<svg width="118" height="118" viewBox="0 0 118 118" fill="none" xmlns="http://www.w3.org/2000/svg">
<g clip-path="url(#clip0_0_109)">
<path d="M88.5 0H29.5C13.2076 0 0 13.2076 0 29.5V88.5C0 104.792 13.2076 118 29.5 118H88.5C104.792 118 118 104.792 118 88.5V29.5C118 13.2076 104.792 0 88.5 0Z" fill="url(#paint0_linear_0_109)"/>
<path d="M42.0244 80.955L38.912 86.3689C37.7696 88.3391 35.2529 89.018 33.2662 87.8756C31.296 86.7332 30.6171 84.2166 31.7595 82.2298L34.0609 78.2398L34.2762 77.859C34.6736 77.2961 35.6504 76.3193 37.5874 76.5013C37.5874 76.5013 42.1736 76.998 42.5045 79.3821C42.5045 79.3987 42.5543 80.1768 42.0244 80.955ZM86.3124 67.147H76.5774C75.9151 67.0974 75.6172 66.8657 75.5178 66.7331V66.7167L65.0873 48.6702L65.0707 48.6868L64.4416 47.7928C63.4152 46.2199 61.7925 50.2266 61.7925 50.2266C59.8555 54.6967 62.0741 59.763 62.8357 61.3027L77.3059 86.3854C78.4482 88.3557 80.9648 89.0344 82.9516 87.892C84.9216 86.7496 85.6005 84.2331 84.4581 82.2464L80.8324 75.9716C80.766 75.8226 80.6336 75.4087 81.3787 75.4087H86.2958C88.5806 75.4087 90.4184 73.5544 90.4184 71.2861C90.435 69.0013 88.5972 67.147 86.3124 67.147ZM67.4051 72.7596C67.4051 72.7596 67.9184 75.4087 65.9152 75.4087H63.8953H29.9052C27.6205 75.4087 25.7828 73.5544 25.7828 71.2861C25.7828 69.0013 27.6371 67.1636 29.9052 67.1636H39.1603C40.6503 67.0808 41.0146 66.22 41.0146 66.22L53.1005 45.2929C53.3159 44.8955 53.1337 44.5146 53.1005 44.4484L49.1105 37.5445C47.9681 35.5743 48.647 33.0411 50.6172 31.8988C52.5874 30.7564 55.1204 31.4352 56.2628 33.4055L58.1172 36.6173L59.9715 33.4221C61.1139 31.4518 63.6304 30.773 65.617 31.9153C67.5873 33.0577 68.2661 35.5743 67.1237 37.5611L50.3191 66.6669C50.2529 66.8491 50.2199 67.1304 50.7662 67.1636H60.8157V67.263C60.7993 67.2464 66.6104 67.3292 67.4051 72.7596Z" fill="white"/>
</g>
<defs>
<linearGradient id="paint0_linear_0_109" x1="58.9917" y1="118.007" x2="58.9917" y2="0.00748346" gradientUnits="userSpaceOnUse">
<stop stop-color="#1D76F2"/>
<stop offset="1" stop-color="#1AC2FB"/>
</linearGradient>
<clipPath id="clip0_0_109">
<rect width="118" height="118" fill="white"/>
</clipPath>
</defs>
</svg>
